<!-- Generated by IcoMoon.io -->
<svg version="1.1" xmlns="http://www.w3.org/2000/svg" width="1024" height="1024" viewBox="0 0 1024 1024">
<title></title>
<g id="icomoon-ignore">
</g>
<path fill="none" stroke-linejoin="round" stroke-linecap="round" stroke-miterlimit="4" stroke-width="56.8889" stroke="#000" d="M620.681 230.86c42.564 8.288 81.681 29.064 112.344 59.669s51.479 69.646 59.785 112.127l-172.129-171.796zM620.681 56.889c88.428 9.805 170.889 49.328 233.842 112.081s102.656 145.005 112.589 233.251l-346.431-345.333zM923.534 749.295v130.48c0.051 12.112-2.435 24.098-7.299 35.197-4.858 11.099-11.992 21.060-20.935 29.252-8.943 8.186-19.502 14.421-30.999 18.301-11.492 3.88-23.677 5.325-35.76 4.233-134.093-14.541-262.897-60.274-376.063-133.524-105.288-66.776-194.553-155.87-261.457-260.955-73.644-113.465-119.475-242.648-133.778-377.083-1.089-12.027 0.343-24.149 4.205-35.594s10.069-21.961 18.226-30.88c8.157-8.919 18.086-16.045 29.153-20.924s23.033-7.405 35.132-7.417h130.728c21.147-0.208 41.649 7.267 57.684 21.030s26.508 32.877 29.468 53.778c5.518 41.756 15.75 82.755 30.503 122.215 5.863 15.567 7.132 32.485 3.656 48.75s-11.55 31.194-23.266 43.020l-55.342 55.236c62.033 108.886 152.362 199.043 261.458 260.956l55.342-55.233c11.844-11.696 26.806-19.752 43.099-23.222 16.299-3.47 33.246-2.202 48.845 3.647 39.538 14.729 80.612 24.94 122.448 30.447 21.168 2.981 40.499 13.625 54.318 29.901 13.824 16.282 21.163 37.057 20.634 58.391z"></path>
</svg>
